{
  "accessors": [
    {
      "bufferView": 1,
      "componentType": 5126,
      "count": 23902,
      "max": [
        0.0023776437155902386,
        0.0023776409216225147,
        0.0031464467756450176
      ],
      "min": [
        -0.002377641387283802,
        -0.0023776269517838955,
        -0.0079999677836894989
      ],
      "type": "VEC3"
    },
    {
      "bufferView": 1,
      "byteOffset": 286824,
      "componentType": 5126,
      "count": 23902,
      "max": [
        1,
        1,
        1
      ],
      "min": [
        -1,
        -1,
        -1
      ],
      "type": "VEC3"
    },
    {
      "bufferView": 0,
      "componentType": 5125,
      "count": 137940,
      "max": [
        23901
      ],
      "min": [
        0
      ],
      "type": "SCALAR"
    },
    {
      "bufferView": 1,
      "byteOffset": 573648,
      "componentType": 5126,
      "count": 264,
      "max": [
        0.0021776517387479544,
        0.0021776515059173107,
        1.3252171582323058e-10
      ],
      "min": [
        -0.0021776512730866671,
        -0.0021776515059173107,
        -0.0030000002589076757
      ],
      "type": "VEC3"
    },
    {
      "bufferView": 1,
      "byteOffset": 576816,
      "componentType": 5126,
      "count": 264,
      "max": [
        1,
        1,
        1
      ],
      "min": [
        -1,
        -1,
        -1
      ],
      "type": "VEC3"
    },
    {
      "bufferView": 0,
      "byteOffset": 551760,
      "componentType": 5125,
      "count": 492,
      "max": [
        263
      ],
      "min": [
        0
      ],
      "type": "SCALAR"
    },
    {
      "bufferView": 1,
      "byteOffset": 579984,
      "componentType": 5126,
      "count": 24843,
      "max": [
        0.0026404913514852524,
        0.0026787775568664074,
        0.0020098513923585415
      ],
      "min": [
        -0.0026404554955661297,
        -0.0018189660040661693,
        -0.003042721189558506
      ],
      "type": "VEC3"
    },
    {
      "bufferView": 1,
      "byteOffset": 878100,
      "componentType": 5126,
      "count": 24843,
      "max": [
        0.9999966025352478,
        0.9998285174369812,
        0.99988490343093872
      ],
      "min": [
        -0.99999654293060303,
        -0.99978411197662354,
        -0.99999749660491943
      ],
      "type": "VEC3"
    },
    {
      "bufferView": 0,
      "byteOffset": 553728,
      "componentType": 5125,
      "count": 140232,
      "max": [
        24842
      ],
      "min": [
        0
      ],
      "type": "SCALAR"
    }
  ],
  "asset": {
    "extras": {
      "author": "nemo81 (https://sketchfab.com/nemo81)",
      "license": "SKETCHFAB Standard (https://sketchfab.com/licenses)",
      "source": "https://sketchfab.com/models/78d9b204b40c4c6d8877d3731ad375a7",
      "title": "Earring"
    },
    "generator": "Sketchfab-3.36.3",
    "version": "2.0"
  },
  "bufferViews": [
    {
      "buffer": 0,
      "byteLength": 1114656,
      "byteOffset": 0,
      "name": "floatBufferViews",
      "target": 34963
    },
    {
      "buffer": 0,
      "byteLength": 1176216,
      "byteOffset": 1114656,
      "byteStride": 12,
      "name": "floatBufferViews",
      "target": 34962
    }
  ],
  "buffers": [
    {
      "byteLength": 2290872,
      "uri": "scene.bin"
    }
  ],
  "materials": [
    {
      "doubleSided": true,
      "emissiveFactor": [
        0,
        0,
        0
      ],
      "name": "Material_25",
      "pbrMetallicRoughness": {
        "baseColorFactor": [
          0.52711512569999996,
          0.376262123,
          0.1221387722,
          1
        ],
        "metallicFactor": 1,
        "roughnessFactor": 0.079978990900000047
      }
    },
    {
      "alphaMode": "BLEND",
      "doubleSided": true,
      "name": "Material_26",
      "pbrMetallicRoughness": {
        "baseColorFactor": [
          1,
          1,
          1,
          0
        ],
        "metallicFactor": 0,
        "roughnessFactor": 0
      }
    }
  ],
  "meshes": [
    {
      "name": "5424_Material #25_0",
      "primitives": [
        {
          "attributes": {
            "NORMAL": 1,
            "POSITION": 0
          },
          "indices": 2,
          "material": 0,
          "mode": 4
        }
      ]
    },
    {
      "name": "6952_Material #26_0",
      "primitives": [
        {
          "attributes": {
            "NORMAL": 4,
            "POSITION": 3
          },
          "indices": 5,
          "material": 1,
          "mode": 4
        }
      ]
    },
    {
      "name": "12016_Material #25_0",
      "primitives": [
        {
          "attributes": {
            "NORMAL": 7,
            "POSITION": 6
          },
          "indices": 8,
          "material": 0,
          "mode": 4
        }
      ]
    }
  ],
  "nodes": [
    {
      "children": [
        1
      ],
      "name": "RootNode (gltf orientation matrix)",
      "rotation": [
        -0.70710678118654746,
        -0,
        -0,
        0.70710678118654757
      ]
    },
    {
      "children": [
        2
      ],
      "name": "RootNode (model correction matrix)"
    },
    {
      "children": [
        3
      ],
      "matrix": [
        1,
        0,
        0,
        0,
        0,
        0,
        1,
        0,
        0,
        -1,
        0,
        0,
        0,
        0,
        0,
        1
      ],
      "name": "Boucle d'oreilles.fbx"
    },
    {
      "children": [
        4,
        6,
        8
      ],
      "name": "RootNode"
    },
    {
      "children": [
        5
      ],
      "matrix": [
        7.5497893544371149e-08,
        -0.99999994039535245,
        0,
        0,
        0,
        0,
        -1,
        0,
        0.99999994039535245,
        7.54978935998823e-08,
        0,
        0,
        0.0022500001359730959,
        0.0022499999031424522,
        0,
        1
      ],
      "name": "5424"
    },
    {
      "mesh": 0,
      "name": "5424_Material #25_0"
    },
    {
      "children": [
        7
      ],
      "matrix": [
        7.5497893544371149e-08,
        -0.99999994039535245,
        0,
        0,
        0,
        0,
        -1,
        0,
        0.99999994039535245,
        7.54978935998823e-08,
        0,
        0,
        0.0057500000111758709,
        0.0022500008344650269,
        0,
        1
      ],
      "name": "6952"
    },
    {
      "mesh": 1,
      "name": "6952_Material #26_0"
    },
    {
      "children": [
        9
      ],
      "matrix": [
        4.3622494636558219e-07,
        1.1102229584507075e-16,
        0.99999994039526019,
        0,
        0.8539389435215814,
        0.52037321293193672,
        -3.725094920858929e-07,
        0,
        -0.52037321293188721,
        0.85393894352166266,
        2.2699979029816575e-07,
        0,
        -0.0043008113279938698,
        0.002249985933303833,
        -2.1543034023352448e-10,
        1
      ],
      "name": "12016"
    },
    {
      "mesh": 2,
      "name": "12016_Material #25_0"
    }
  ],
  "scene": 0,
  "scenes": [
    {
      "name": "OSG_Scene",
      "nodes": [
        0
      ]
    }
  ]
}

