{
  "accessors": [
    {
      "bufferView": 2,
      "componentType": 5126,
      "count": 101,
      "max": [
        1,
        1.3186674118041992,
        0.95105665922164917
      ],
      "min": [
        -1.0000001192092896,
        0.18695068359375,
        -0.95105671882629395
      ],
      "type": "VEC3"
    },
    {
      "bufferView": 2,
      "byteOffset": 1212,
      "componentType": 5126,
      "count": 101,
      "max": [
        0.61800038814544678,
        1,
        0.64980393648147583
      ],
      "min": [
        -0.618000328540802,
        -0.7601020336151123,
        -0.64980393648147583
      ],
      "type": "VEC3"
    },
    {
      "bufferView": 1,
      "componentType": 5126,
      "count": 101,
      "max": [
        0.80181527137756348,
        0.86584019660949707
      ],
      "min": [
        0.17452806234359741,
        0.025979161262512207
      ],
      "type": "VEC2"
    },
    {
      "bufferView": 0,
      "componentType": 5125,
      "count": 180,
      "max": [
        100
      ],
      "min": [
        0
      ],
      "type": "SCALAR"
    },
    {
      "bufferView": 2,
      "byteOffset": 2424,
      "componentType": 5126,
      "count": 1872,
      "max": [
        1.0748165845870972,
        0.99999988079071045,
        1.0748122930526733
      ],
      "min": [
        -1.0748163461685181,
        -0.99999988079071045,
        -1.0748118162155151
      ],
      "type": "VEC3"
    },
    {
      "bufferView": 2,
      "byteOffset": 24888,
      "componentType": 5126,
      "count": 1872,
      "max": [
        1,
        1,
        1
      ],
      "min": [
        -1,
        -1,
        -1
      ],
      "type": "VEC3"
    },
    {
      "bufferView": 1,
      "byteOffset": 808,
      "componentType": 5126,
      "count": 1872,
      "max": [
        1.0119063854217529,
        0.60855376720428467
      ],
      "min": [
        1.6391277313232422e-06,
        0.39144629240036011
      ],
      "type": "VEC2"
    },
    {
      "bufferView": 0,
      "byteOffset": 720,
      "componentType": 5125,
      "count": 11088,
      "max": [
        1871
      ],
      "min": [
        0
      ],
      "type": "SCALAR"
    },
    {
      "bufferView": 2,
      "byteOffset": 47352,
      "componentType": 5126,
      "count": 202,
      "max": [
        2.0675420761108398,
        44.542648315429688,
        2.0675415992736816
      ],
      "min": [
        -2.0675415992736816,
        -1,
        -2.0675418376922607
      ],
      "type": "VEC3"
    },
    {
      "bufferView": 2,
      "byteOffset": 49776,
      "componentType": 5126,
      "count": 202,
      "max": [
        1,
        1,
        1
      ],
      "min": [
        -1,
        -1,
        -1
      ],
      "type": "VEC3"
    },
    {
      "bufferView": 1,
      "byteOffset": 15784,
      "componentType": 5126,
      "count": 202,
      "max": [
        0.5646977424621582,
        0.998008131980896
      ],
      "min": [
        0.0011271411785855889,
        0.0019920321647077799
      ],
      "type": "VEC2"
    },
    {
      "bufferView": 0,
      "byteOffset": 45072,
      "componentType": 5125,
      "count": 576,
      "max": [
        201
      ],
      "min": [
        0
      ],
      "type": "SCALAR"
    }
  ],
  "asset": {
    "extras": {
      "author": "AirStudios (https://sketchfab.com/sebbe613)",
      "license": "SKETCHFAB Standard (https://sketchfab.com/licenses)",
      "source": "https://sketchfab.com/3d-models/wedding-ring-b62072a6cadd48e587aa35050579ace7",
      "title": "Wedding Ring"
    },
    "generator": "Sketchfab-8.63.0",
    "version": "2.0"
  },
  "bufferViews": [
    {
      "buffer": 0,
      "byteLength": 47376,
      "byteOffset": 0,
      "name": "floatBufferViews",
      "target": 34963
    },
    {
      "buffer": 0,
      "byteLength": 17400,
      "byteOffset": 47376,
      "byteStride": 8,
      "name": "floatBufferViews",
      "target": 34962
    },
    {
      "buffer": 0,
      "byteLength": 52200,
      "byteOffset": 64776,
      "byteStride": 12,
      "name": "floatBufferViews",
      "target": 34962
    }
  ],
  "buffers": [
    {
      "byteLength": 116976,
      "uri": "scene.bin"
    }
  ],
  "images": [
    {
      "uri": "textures/phong1_baseColor.png"
    }
  ],
  "materials": [
    {
      "alphaMode": "BLEND",
      "doubleSided": true,
      "emissiveFactor": [
        0,
        0,
        0
      ],
      "name": "phong1",
      "pbrMetallicRoughness": {
        "baseColorFactor": [
          1,
          1,
          1,
          1
        ],
        "baseColorTexture": {
          "index": 0,
          "texCoord": 0
        },
        "metallicFactor": 1,
        "roughnessFactor": 0
      }
    },
    {
      "doubleSided": true,
      "emissiveFactor": [
        0,
        0,
        0
      ],
      "name": "phong2",
      "pbrMetallicRoughness": {
        "baseColorFactor": [
          1,
          0.64143022228268665,
          0.22232376186523486,
          1
        ],
        "metallicFactor": 1,
        "roughnessFactor": 0.16530622792137117
      }
    }
  ],
  "meshes": [
    {
      "name": "pCylinder1_phong1_0",
      "primitives": [
        {
          "attributes": {
            "NORMAL": 1,
            "POSITION": 0,
            "TEXCOORD_0": 2
          },
          "indices": 3,
          "material": 0,
          "mode": 4
        }
      ]
    },
    {
      "name": "pCylinder2_phong2_0",
      "primitives": [
        {
          "attributes": {
            "NORMAL": 5,
            "POSITION": 4,
            "TEXCOORD_0": 6
          },
          "indices": 7,
          "material": 1,
          "mode": 4
        }
      ]
    },
    {
      "name": "pCylinder3_phong2_0",
      "primitives": [
        {
          "attributes": {
            "NORMAL": 9,
            "POSITION": 8,
            "TEXCOORD_0": 10
          },
          "indices": 11,
          "material": 1,
          "mode": 4
        }
      ]
    }
  ],
  "nodes": [
    {
      "children": [
        1
      ],
      "name": "RootNode (gltf orientation matrix)",
      "rotation": [
        -0.70710678118654746,
        -0,
        -0,
        0.70710678118654757
      ]
    },
    {
      "children": [
        2
      ],
      "name": "RootNode (model correction matrix)"
    },
    {
      "children": [
        3
      ],
      "matrix": [
        1,
        0,
        0,
        0,
        0,
        0,
        1,
        0,
        0,
        -1,
        0,
        0,
        0,
        0,
        0,
        1
      ],
      "name": "406a8c9f9ec445c3b1f77c8c7887784d.fbx"
    },
    {
      "children": [
        4,
        6,
        8
      ],
      "name": "RootNode"
    },
    {
      "children": [
        5
      ],
      "matrix": [
        0.69953912496566772,
        0,
        0,
        0,
        0,
        0.69953912496566772,
        0,
        0,
        0,
        0,
        0.69953912496566772,
        0,
        0,
        1.7495633363723755,
        0,
        1
      ],
      "name": "pCylinder1"
    },
    {
      "mesh": 0,
      "name": "pCylinder1_phong1_0"
    },
    {
      "children": [
        7
      ],
      "matrix": [
        1.7575982809066772,
        0,
        0,
        0,
        0,
        6.0179500528155999e-17,
        0.27102437615394592,
        0,
        0,
        -1.7575982809066772,
        3.9026521590083735e-16,
        0,
        0,
        0,
        0,
        1
      ],
      "name": "pCylinder2"
    },
    {
      "mesh": 1,
      "name": "pCylinder2_phong2_0"
    },
    {
      "children": [
        9
      ],
      "matrix": [
        0.22812406718730927,
        0,
        0,
        0,
        0,
        0.011947494931519032,
        0,
        0,
        0,
        0,
        0.22812406718730927,
        0,
        0.0053593534976243973,
        1.8869589567184448,
        0,
        1
      ],
      "name": "pCylinder3"
    },
    {
      "mesh": 2,
      "name": "pCylinder3_phong2_0"
    }
  ],
  "samplers": [
    {
      "magFilter": 9729,
      "minFilter": 9987,
      "wrapS": 10497,
      "wrapT": 10497
    }
  ],
  "scene": 0,
  "scenes": [
    {
      "name": "OSG_Scene",
      "nodes": [
        0
      ]
    }
  ],
  "textures": [
    {
      "sampler": 0,
      "source": 0
    }
  ]
}

